<svg xmlns="http://www.w3.org/2000/svg" width="22.534" height="22.176" viewBox="0 0 22.534 22.176">
  <g id="noun_cacao_3890993_1_" data-name="noun_cacao_3890993 (1)" transform="translate(0 22.176) rotate(-90)">
    <path id="Tracé_4747" data-name="Tracé 4747" d="M.637,20.184c-.187.324-.357.617-.484.882A.08.08,0,0,1,0,21.028c.033-.683.288-1.569.454-2.8C.825,15.419.419,12.4,4.81,8c4.073-4.072,6.331-4.559,9-5.374,2-.628,3.186-1.5,4.88-.3A8.966,8.966,0,0,0,16.358,3.81a17.016,17.016,0,0,1-3.269,2.106c-2.333.973-5.8,4-7.807,6.376a29.47,29.47,0,0,0-3.643,6c-.176.36-.334.674-.468.936C.988,19.578.8,19.891.637,20.184ZM16.615,9.647a16.574,16.574,0,0,1,2.144-3.334c.767-1.008,1.565-2.061,1.462-2.483a2.242,2.242,0,0,0,.172-.186C21.871,2.11,22.123,1.277,22.169.99a.009.009,0,0,1,0-.013c0-.014,0-.014,0-.027l.007-.006a.859.859,0,0,0-.257-.678A.8.8,0,0,0,20.784.207a.732.732,0,0,0-.2.379L20.6.593,20.59.6a5.629,5.629,0,0,1-1.33,1.811l-.2.2c-.447-.077-1.487.722-2.489,1.469A16.7,16.7,0,0,1,13.24,6.22c-2.294.962-5.718,3.946-7.7,6.3a29.8,29.8,0,0,0-3.605,5.943c-.176.36-.334.688-.475.943-.183.353-.368.679-.534.973-.568.965-.867,1.533-.541,1.859.475.475,1.608-.064,3.041-.8.268-.14.582-.3.949-.481a28.561,28.561,0,0,0,5.937-3.6C12.662,15.37,15.66,11.947,16.615,9.647ZM19.982,8.8c.575-1.864,1.368-3.025.516-4.54a9.75,9.75,0,0,1-1.466,2.274A16.292,16.292,0,0,0,16.918,9.8c-.979,2.34-4.009,5.809-6.369,7.815a29.451,29.451,0,0,1-6,3.636q-.55.274-.942.475c-.487.256-.939.482-1.347.658a.08.08,0,0,0,.045.153c.567-.1,1.249-.254,2.091-.367,2.808-.371,5.837.029,10.216-4.364C18.681,13.73,19.168,11.472,19.982,8.8Z" transform="translate(0 0)" fill="#752800"/>
  </g>
</svg>
