<svg id="noun_Cashew_2776296" xmlns="http://www.w3.org/2000/svg" width="22.537" height="22.535" viewBox="0 0 22.537 22.535">
  <path id="Tracé_4743" data-name="Tracé 4743" d="M22.28,14.03a17.91,17.91,0,0,0-1.785-3.93c-.336-.6-.683-1.23-.98-1.85a12.675,12.675,0,0,0-1.584-2.6,6.976,6.976,0,0,0-2.815-2.125,6.231,6.231,0,0,0-5.034.354C8.7,1.644,6-.618,2.8.155A3.586,3.586,0,0,0,.035,3.01a3.237,3.237,0,0,0,.6,2.344A2.8,2.8,0,0,0,2.624,6.377a2.582,2.582,0,0,0,.243,2.8,2.894,2.894,0,0,0,1.021.886,6.227,6.227,0,0,0-.358,5.044c.942,2.387,3.146,3.655,4.723,4.4.624.3,1.253.645,1.861.983a17.993,17.993,0,0,0,3.921,1.78,7.387,7.387,0,0,0,1.929.259,6.994,6.994,0,0,0,4.394-1.548,6.255,6.255,0,0,0,.624-.622,7.051,7.051,0,0,0,1.3-6.335ZM3.967,8.394c-.286-.4-.487-1.122-.034-1.478l.054-.041a1.555,1.555,0,0,0,.354-.338.77.77,0,0,0,.086-.757c-.126-.291-.4-.579-1.559-.735a1.541,1.541,0,0,1-1.147-.5A1.849,1.849,0,0,1,1.373,3.2,2.227,2.227,0,0,1,3.122,1.469C5.592.871,7.746,2.71,8.9,4.54A11.872,11.872,0,0,0,6.566,6.559,11.9,11.9,0,0,0,4.553,8.885a1.513,1.513,0,0,1-.586-.491Z" transform="translate(-0.007 0)" fill="#ff7d00"/>
</svg>
