<svg id="shea-butter_1_" data-name="shea-butter (1)" xmlns="http://www.w3.org/2000/svg" width="22.534" height="26.465" viewBox="0 0 22.534 26.465">
  <path id="Tracé_4748" data-name="Tracé 4748" d="M292.228,13.941a27.83,27.83,0,0,0,.5-5.5c0-4.661-.919-8.439-2.052-8.439s-2.052,3.778-2.052,8.439q0,.509.015,1A9.8,9.8,0,0,1,292.228,13.941Z" transform="translate(-275.617 0)" fill="#ff9d58"/>
  <path id="Tracé_4749" data-name="Tracé 4749" d="M187.99,16.925c-.011-2.385.232-5.974,1.178-8.158a8.366,8.366,0,0,0-5.042,7.6A8.309,8.309,0,0,1,187.99,16.925Z" transform="translate(-176.542 -8.312)" fill="#ff9d58"/>
  <path id="Tracé_4750" data-name="Tracé 4750" d="M375.037,8.768c1.538,3.55,1.6,12.27,0,15.968a8.415,8.415,0,0,0,5.05-7.984,8.415,8.415,0,0,0-5.05-7.984Z" transform="translate(-357.553 -8.313)" fill="#ff9d58"/>
  <path id="Tracé_4751" data-name="Tracé 4751" d="M59.807,193.317a8.837,8.837,0,0,0,0,15.969c-1.554-3.587-1.587-12.3,0-15.969Z" transform="translate(-53.883 -183.291)" fill="#ff9d58"/>
  <path id="Tracé_4752" data-name="Tracé 4752" d="M245.821,193.318c1.56,3.6,1.581,12.318,0,15.969a8.837,8.837,0,0,0,0-15.969Z" transform="translate(-235.038 -183.292)" fill="#ff9d58"/>
  <path id="Tracé_4753" data-name="Tracé 4753" d="M161.455,184.55c-1.133,0-2.052,3.778-2.052,8.439s.919,8.439,2.052,8.439,2.052-3.778,2.052-8.439S162.589,184.55,161.455,184.55Z" transform="translate(-153.102 -174.979)" fill="#ff9d58"/>
  <path id="Tracé_4754" data-name="Tracé 4754" d="M314.751,345.264q-.287.108-.582.193a10.406,10.406,0,0,1-3.228,7.574,9.2,9.2,0,0,0,5.369.647,9.115,9.115,0,0,0,.054-5.039A10.463,10.463,0,0,0,314.751,345.264Z" transform="translate(-296.781 -327.358)" fill="#ff9d58"/>
  <path id="Tracé_4755" data-name="Tracé 4755" d="M38.28,25.149a9.115,9.115,0,0,0-.054,5.039,10.564,10.564,0,0,0,2.09,3.991,8.737,8.737,0,0,1,3.214-2l-1.853-2.072,1.16-1.037,1.215,1.358a10.544,10.544,0,0,1,1.3-3.7A9.4,9.4,0,0,0,38.28,25.149Z" transform="translate(-37.897 -23.709)" fill="#ff9d58"/>
</svg>
