<svg id="noun_Rubber_3859852" xmlns="http://www.w3.org/2000/svg" width="10.951" height="24.172" viewBox="0 0 10.951 24.172">
  <path id="Tracé_4744" data-name="Tracé 4744" d="M45.293,2.269a.377.377,0,0,1,.264.706L42.576,4.093c0,.227.006.461.008.7l2.709-1.016a.377.377,0,0,1,.264.706L42.59,5.6c0,.23,0,.464,0,.7l2.7-1.014A.377.377,0,0,1,45.558,6L42.59,7.108c0,.346,0,.7-.006,1.059a.094.094,0,0,1,.025-.009,1.129,1.129,0,0,1,1.435.71c.2.583.723.895,1.561,1.356a4.79,4.79,0,0,1,2.445,2.319c.019.028.038.057.057.087l.434.755h1.21C49.409,7.038,49.692.481,49.7.373a.379.379,0,0,0-.361-.395c-.21-.006-6.295-.008-6.474,0A.378.378,0,0,0,42.5.369c0,.045.04,1.171.068,2.923Z" transform="translate(-41.083 0.026)" fill="#35a159"/>
  <path id="Tracé_4745" data-name="Tracé 4745" d="M44.13,64.882a4.309,4.309,0,0,1-1.955.468,4.66,4.66,0,0,1-4.527-4.436,1.133,1.133,0,0,1,1.129-1.228h.849l.125-.216a3.679,3.679,0,0,0-1.32-.958,6.437,6.437,0,0,1-1.97-1.459c-.117,4.926-.479,10.292-1.436,12.887a.378.378,0,0,0,.354.509h9.629a.378.378,0,0,0,.343-.536A18.919,18.919,0,0,1,44.13,64.882Z" transform="translate(-35.001 -46.275)" fill="#35a159"/>
  <path id="Tracé_4746" data-name="Tracé 4746" d="M47.858,51.153a.339.339,0,0,0-.064-.081,2.909,2.909,0,0,0-1.048-1.363,24.05,24.05,0,0,1-2.434-1.564,2.19,2.19,0,0,1-.576-.889.378.378,0,1,0-.715.242,2.853,2.853,0,0,0,.484.88,8.188,8.188,0,0,0,2.361,1.646l.011.007a2.513,2.513,0,0,1,1.215,1.318l-.54.936H45.265a.378.378,0,0,0-.376.409,3.775,3.775,0,0,0,7.55,0,.378.378,0,0,0-.376-.409H48.511Zm-.653,1.51.327-.566.327.566a.377.377,0,1,1-.653,0Zm4.425.378a2.985,2.985,0,0,1-5.931,0h.717a1.131,1.131,0,0,0,2.231,0Z" transform="translate(-41.489 -38.121)" fill="#35a159"/>
</svg>
