<svg xmlns="http://www.w3.org/2000/svg" width="63.322" height="106.368" viewBox="0 0 63.322 106.368">
  <g id="pdf" transform="translate(0 0)">
    <path id="Tracé_4903" data-name="Tracé 4903" d="M23.852,0h38.43L82.651,20.29V67.845a4.523,4.523,0,0,1-4.523,4.523H23.852a4.523,4.523,0,0,1-4.523-4.523V4.523A4.523,4.523,0,0,1,23.852,0Z" transform="translate(-19.329 0)" fill="#e2574c"/>
    <path id="Tracé_4904" data-name="Tracé 4904" d="M223.245,20.5H207.48a4.525,4.525,0,0,1-4.523-4.523V.193Z" transform="translate(-159.988 -0.148)" fill="#b53629"/>
    <path id="Tracé_4905" data-name="Tracé 4905" d="M117.581,138.023a1.315,1.315,0,0,0,0-2.6h-4.315a1.348,1.348,0,0,0-1.314,1.47v10.6c0,.945.538,1.47,1.266,1.47s1.264-.525,1.264-1.47v-2.91h2.61a1.225,1.225,0,0,0,1.214-1.321,1.2,1.2,0,0,0-1.214-1.285h-2.61v-3.955ZM103,135.42H99.84a1.4,1.4,0,0,0-1.466,1.461V147.5a1.391,1.391,0,0,0,1.5,1.422h3.313a6.145,6.145,0,0,0,6.511-6.563C109.7,138.152,107.26,135.42,103,135.42Zm.152,10.887h-1.925v-8.268h1.735c2.626,0,3.768,1.762,3.768,4.193C106.726,144.507,105.6,146.307,103.148,146.307ZM91.583,135.42H88.455a1.315,1.315,0,0,0-1.377,1.47v10.6a1.332,1.332,0,1,0,2.65,0v-3.1h1.961a4.282,4.282,0,0,0,4.417-4.471A4.332,4.332,0,0,0,91.583,135.42Zm-.052,6.491h-1.8v-4h1.8a2.009,2.009,0,0,1,0,4Z" transform="translate(-71.224 -103.732)" fill="#fff"/>
  </g>
</svg>
