<!-- @formatter:off -->
<svg xmlns="http://www.w3.org/2000/svg" xmlns:xlink="http://www.w3.org/1999/xlink">
    <defs>
        <svg id="cashew" xmlns="http://www.w3.org/2000/svg" fill="none" viewBox="0 0 24 24">
          <path stroke-linecap="cashew" stroke-linejoin="cashew" stroke-width="2" d="M22.28,14.03a17.91,17.91,0,0,0-1.785-3.93c-.336-.6-.683-1.23-.98-1.85a12.675,12.675,0,0,0-1.584-2.6,6.976,6.976,0,0,0-2.815-2.125,6.231,6.231,0,0,0-5.034.354C8.7,1.644,6-.618,2.8.155A3.586,3.586,0,0,0,.035,3.01a3.237,3.237,0,0,0,.6,2.344A2.8,2.8,0,0,0,2.624,6.377a2.582,2.582,0,0,0,.243,2.8,2.894,2.894,0,0,0,1.021.886,6.227,6.227,0,0,0-.358,5.044c.942,2.387,3.146,3.655,4.723,4.4.624.3,1.253.645,1.861.983a17.993,17.993,0,0,0,3.921,1.78,7.387,7.387,0,0,0,1.929.259,6.994,6.994,0,0,0,4.394-1.548,6.255,6.255,0,0,0,.624-.622,7.051,7.051,0,0,0,1.3-6.335ZM3.967,8.394c-.286-.4-.487-1.122-.034-1.478l.054-.041a1.555,1.555,0,0,0,.354-.338.77.77,0,0,0,.086-.757c-.126-.291-.4-.579-1.559-.735a1.541,1.541,0,0,1-1.147-.5A1.849,1.849,0,0,1,1.373,3.2,2.227,2.227,0,0,1,3.122,1.469C5.592.871,7.746,2.71,8.9,4.54A11.872,11.872,0,0,0,6.566,6.559,11.9,11.9,0,0,0,4.553,8.885a1.513,1.513,0,0,1-.586-.491Z" transform="translate(-0.007 0)" fill="#ff7d00"/>
        </svg>

        <svg id="cacao" xmlns="http://www.w3.org/2000/svg" width="22.534" height="22.176" viewBox="0 0 22.534 22.176">
          <g id="noun_cacao_3890993_1_" data-name="noun_cacao_3890993 (1)" transform="translate(0 22.176) rotate(-90)">
            <path id="cacao" data-name="Tracé 4747" d="M.637,20.184c-.187.324-.357.617-.484.882A.08.08,0,0,1,0,21.028c.033-.683.288-1.569.454-2.8C.825,15.419.419,12.4,4.81,8c4.073-4.072,6.331-4.559,9-5.374,2-.628,3.186-1.5,4.88-.3A8.966,8.966,0,0,0,16.358,3.81a17.016,17.016,0,0,1-3.269,2.106c-2.333.973-5.8,4-7.807,6.376a29.47,29.47,0,0,0-3.643,6c-.176.36-.334.674-.468.936C.988,19.578.8,19.891.637,20.184ZM16.615,9.647a16.574,16.574,0,0,1,2.144-3.334c.767-1.008,1.565-2.061,1.462-2.483a2.242,2.242,0,0,0,.172-.186C21.871,2.11,22.123,1.277,22.169.99a.009.009,0,0,1,0-.013c0-.014,0-.014,0-.027l.007-.006a.859.859,0,0,0-.257-.678A.8.8,0,0,0,20.784.207a.732.732,0,0,0-.2.379L20.6.593,20.59.6a5.629,5.629,0,0,1-1.33,1.811l-.2.2c-.447-.077-1.487.722-2.489,1.469A16.7,16.7,0,0,1,13.24,6.22c-2.294.962-5.718,3.946-7.7,6.3a29.8,29.8,0,0,0-3.605,5.943c-.176.36-.334.688-.475.943-.183.353-.368.679-.534.973-.568.965-.867,1.533-.541,1.859.475.475,1.608-.064,3.041-.8.268-.14.582-.3.949-.481a28.561,28.561,0,0,0,5.937-3.6C12.662,15.37,15.66,11.947,16.615,9.647ZM19.982,8.8c.575-1.864,1.368-3.025.516-4.54a9.75,9.75,0,0,1-1.466,2.274A16.292,16.292,0,0,0,16.918,9.8c-.979,2.34-4.009,5.809-6.369,7.815a29.451,29.451,0,0,1-6,3.636q-.55.274-.942.475c-.487.256-.939.482-1.347.658a.08.08,0,0,0,.045.153c.567-.1,1.249-.254,2.091-.367,2.808-.371,5.837.029,10.216-4.364C18.681,13.73,19.168,11.472,19.982,8.8Z" transform="translate(0 0)" fill="#752800"/>
          </g>
        </svg>

      <svg id="karite" data-name="shea-butter (1)" xmlns="http://www.w3.org/2000/svg" width="22.534" height="26.465" viewBox="0 0 22.534 26.465">
        <path id="Tracé_4748" data-name="Tracé 4748" d="M292.228,13.941a27.83,27.83,0,0,0,.5-5.5c0-4.661-.919-8.439-2.052-8.439s-2.052,3.778-2.052,8.439q0,.509.015,1A9.8,9.8,0,0,1,292.228,13.941Z" transform="translate(-275.617 0)" fill="#ff9d58"/>
        <path id="Tracé_4749" data-name="Tracé 4749" d="M187.99,16.925c-.011-2.385.232-5.974,1.178-8.158a8.366,8.366,0,0,0-5.042,7.6A8.309,8.309,0,0,1,187.99,16.925Z" transform="translate(-176.542 -8.312)" fill="#ff9d58"/>
        <path id="Tracé_4750" data-name="Tracé 4750" d="M375.037,8.768c1.538,3.55,1.6,12.27,0,15.968a8.415,8.415,0,0,0,5.05-7.984,8.415,8.415,0,0,0-5.05-7.984Z" transform="translate(-357.553 -8.313)" fill="#ff9d58"/>
        <path id="Tracé_4751" data-name="Tracé 4751" d="M59.807,193.317a8.837,8.837,0,0,0,0,15.969c-1.554-3.587-1.587-12.3,0-15.969Z" transform="translate(-53.883 -183.291)" fill="#ff9d58"/>
        <path id="Tracé_4752" data-name="Tracé 4752" d="M245.821,193.318c1.56,3.6,1.581,12.318,0,15.969a8.837,8.837,0,0,0,0-15.969Z" transform="translate(-235.038 -183.292)" fill="#ff9d58"/>
        <path id="Tracé_4753" data-name="Tracé 4753" d="M161.455,184.55c-1.133,0-2.052,3.778-2.052,8.439s.919,8.439,2.052,8.439,2.052-3.778,2.052-8.439S162.589,184.55,161.455,184.55Z" transform="translate(-153.102 -174.979)" fill="#ff9d58"/>
        <path id="Tracé_4754" data-name="Tracé 4754" d="M314.751,345.264q-.287.108-.582.193a10.406,10.406,0,0,1-3.228,7.574,9.2,9.2,0,0,0,5.369.647,9.115,9.115,0,0,0,.054-5.039A10.463,10.463,0,0,0,314.751,345.264Z" transform="translate(-296.781 -327.358)" fill="#ff9d58"/>
        <path id="Tracé_4755" data-name="Tracé 4755" d="M38.28,25.149a9.115,9.115,0,0,0-.054,5.039,10.564,10.564,0,0,0,2.09,3.991,8.737,8.737,0,0,1,3.214-2l-1.853-2.072,1.16-1.037,1.215,1.358a10.544,10.544,0,0,1,1.3-3.7A9.4,9.4,0,0,0,38.28,25.149Z" transform="translate(-37.897 -23.709)" fill="#ff9d58"/>
      </svg>

      <svg id="hevea" xmlns="http://www.w3.org/2000/svg" width="10.951" height="24.172" viewBox="0 0 10.951 24.172">
        <path id="Tracé_4744" data-name="Tracé 4744" d="M45.293,2.269a.377.377,0,0,1,.264.706L42.576,4.093c0,.227.006.461.008.7l2.709-1.016a.377.377,0,0,1,.264.706L42.59,5.6c0,.23,0,.464,0,.7l2.7-1.014A.377.377,0,0,1,45.558,6L42.59,7.108c0,.346,0,.7-.006,1.059a.094.094,0,0,1,.025-.009,1.129,1.129,0,0,1,1.435.71c.2.583.723.895,1.561,1.356a4.79,4.79,0,0,1,2.445,2.319c.019.028.038.057.057.087l.434.755h1.21C49.409,7.038,49.692.481,49.7.373a.379.379,0,0,0-.361-.395c-.21-.006-6.295-.008-6.474,0A.378.378,0,0,0,42.5.369c0,.045.04,1.171.068,2.923Z" transform="translate(-41.083 0.026)" fill="#35a159"/>
        <path id="Tracé_4745" data-name="Tracé 4745" d="M44.13,64.882a4.309,4.309,0,0,1-1.955.468,4.66,4.66,0,0,1-4.527-4.436,1.133,1.133,0,0,1,1.129-1.228h.849l.125-.216a3.679,3.679,0,0,0-1.32-.958,6.437,6.437,0,0,1-1.97-1.459c-.117,4.926-.479,10.292-1.436,12.887a.378.378,0,0,0,.354.509h9.629a.378.378,0,0,0,.343-.536A18.919,18.919,0,0,1,44.13,64.882Z" transform="translate(-35.001 -46.275)" fill="#35a159"/>
        <path id="Tracé_4746" data-name="Tracé 4746" d="M47.858,51.153a.339.339,0,0,0-.064-.081,2.909,2.909,0,0,0-1.048-1.363,24.05,24.05,0,0,1-2.434-1.564,2.19,2.19,0,0,1-.576-.889.378.378,0,1,0-.715.242,2.853,2.853,0,0,0,.484.88,8.188,8.188,0,0,0,2.361,1.646l.011.007a2.513,2.513,0,0,1,1.215,1.318l-.54.936H45.265a.378.378,0,0,0-.376.409,3.775,3.775,0,0,0,7.55,0,.378.378,0,0,0-.376-.409H48.511Zm-.653,1.51.327-.566.327.566a.377.377,0,1,1-.653,0Zm4.425.378a2.985,2.985,0,0,1-5.931,0h.717a1.131,1.131,0,0,0,2.231,0Z" transform="translate(-41.489 -38.121)" fill="#35a159"/>
      </svg>

      <svg id="green_icon" xmlns="http://www.w3.org/2000/svg" width="5" height="5" viewBox="0 0 18 18">
        <g id="Groupe_11210" data-name="Groupe 11210" transform="translate(-442.059 -54)">
          <circle id="Ellipse_8" data-name="Ellipse 8" cx="9" cy="9" r="9" transform="translate(442.059 54)" fill="#1fc048"/>
          <path id="Tracé_4756" data-name="Tracé 4756" d="M-21953.68-18071.018l3.289,3.678,8.32-6.775" transform="translate(22399.117 18133.537)" fill="none" stroke="#fff" stroke-width="2"/>
        </g>
    </svg>

    <svg id="nav_calculator" xmlns="http://www.w3.org/2000/svg" width="15.743" height="21.193" viewBox="0 0 15.743 21.193" stroke="currentColor">
      <g id="nav_calculator" transform="translate(-65.834)">
        <g id="Groupe_11270" data-name="Groupe 11270" transform="translate(65.834)">
          <path id="Tracé_4870" stroke-linecap="round" stroke-linejoin="round" stroke-width="2" data-name="Tracé 4870" d="M79.538,0H67.873a2.041,2.041,0,0,0-2.039,2.039V19.154a2.041,2.041,0,0,0,2.039,2.039H79.538a2.041,2.041,0,0,0,2.039-2.039V2.039A2.041,2.041,0,0,0,79.538,0ZM68.628,3.522a.621.621,0,0,1,.621-.621h8.912a.621.621,0,0,1,.621.621V4.748a.621.621,0,0,1-.621.621H69.249a.621.621,0,0,1-.621-.621Zm2.09,13.942a.621.621,0,0,1-.621.621h-.849a.621.621,0,0,1-.621-.621v-.588a.621.621,0,0,1,.621-.621H70.1a.621.621,0,0,1,.621.621Zm0-3.674a.621.621,0,0,1-.621.621h-.849a.621.621,0,0,1-.621-.621V13.2a.621.621,0,0,1,.621-.621H70.1a.621.621,0,0,1,.621.621ZM74.8,17.464a.621.621,0,0,1-.621.621h-.849a.621.621,0,0,1-.621-.621v-.588a.621.621,0,0,1,.621-.621h.849a.621.621,0,0,1,.621.621Zm0-3.674a.621.621,0,0,1-.621.621h-.849a.621.621,0,0,1-.621-.621V13.2a.621.621,0,0,1,.621-.621h.849a.621.621,0,0,1,.621.621Zm0-3.674a.621.621,0,0,1-.621.621H69.249a.621.621,0,0,1-.621-.621V9.527a.621.621,0,0,1,.621-.621h4.931a.621.621,0,0,1,.621.621Zm4.083,7.349a.621.621,0,0,1-.621.621h-.849a.621.621,0,0,1-.621-.621v-.588a.621.621,0,0,1,.621-.621h.849a.621.621,0,0,1,.621.621Zm0-3.674a.621.621,0,0,1-.621.621h-.849a.621.621,0,0,1-.621-.621V13.2a.621.621,0,0,1,.621-.621h.849a.621.621,0,0,1,.621.621Zm0-3.674a.621.621,0,0,1-.621.621h-.849a.621.621,0,0,1-.621-.621V9.527a.621.621,0,0,1,.621-.621h.849a.621.621,0,0,1,.621.621Z" transform="translate(-65.834)" fill="none"/>
        </g>
      </g>
    </svg>

    <svg id="nav_finance" xmlns="http://www.w3.org/2000/svg" width="21.798" height="21.543" viewBox="0 0 21.798 21.543" stroke="currentColor">
      <g id="nav_finance" transform="translate(0 -3)">
        <g id="Groupe_11259" data-name="Groupe 11259" transform="translate(12.77 13.78)">
          <g id="Groupe_11258" data-name="Groupe 11258">
            <path id="Tracé_4864" stroke-linecap="round" stroke-linejoin="round" stroke-width="1" data-name="Tracé 4864" d="M301.742,259.273a.819.819,0,1,1,.937-.811.426.426,0,1,0,.852,0,1.694,1.694,0,0,0-1.362-1.614v-.221a.426.426,0,0,0-.851,0v.221a1.694,1.694,0,0,0-1.362,1.614,1.731,1.731,0,0,0,1.788,1.662.819.819,0,1,1-.937.811.426.426,0,1,0-.852,0,1.694,1.694,0,0,0,1.362,1.614v.184a.426.426,0,0,0,.851,0v-.184a1.694,1.694,0,0,0,1.362-1.614A1.731,1.731,0,0,0,301.742,259.273Z" transform="translate(-299.954 -256.201)" fill="none"/>
          </g>
        </g>
        <g id="Groupe_11261" data-name="Groupe 11261" transform="translate(16.345 12.272)">
          <g id="Groupe_11260" data-name="Groupe 11260">
            <path id="Tracé_4865" stroke-linecap="round" stroke-linejoin="round" stroke-width="0.5" data-name="Tracé 4865" d="M386.8,222.832a5.548,5.548,0,0,0-2.266-2.005.426.426,0,0,0-.369.767,4.687,4.687,0,0,1,2.111,6.42.426.426,0,1,0,.752.4,5.541,5.541,0,0,0-.228-5.582Z" transform="translate(-383.924 -220.785)" fill="none"/>
          </g>
        </g>
        <g id="Groupe_11263" data-name="Groupe 11263" transform="translate(14.773 11.77)">
          <g id="Groupe_11262" data-name="Groupe 11262">
            <path id="Tracé_4866" stroke-linecap="round" stroke-linejoin="round" stroke-width="0.5" data-name="Tracé 4866" d="M347.454,209h-.029a.426.426,0,1,0,0,.851h.027a.426.426,0,0,0,0-.851Z" transform="translate(-347 -209.001)" fill="none"/>
          </g>
        </g>
        <g id="Groupe_11265" data-name="Groupe 11265" transform="translate(9.026 14.483)">
          <g id="Groupe_11264" data-name="Groupe 11264">
            <path id="Tracé_4867" stroke-linecap="round" stroke-linejoin="round" stroke-width="0.5" data-name="Tracé 4867" d="M215.51,279.757a4.687,4.687,0,0,1-2.111-6.42.426.426,0,1,0-.752-.4,5.537,5.537,0,0,0,2.494,7.587.426.426,0,0,0,.369-.767Z" transform="translate(-212.002 -272.711)" fill="none"/>
          </g>
        </g>
        <g id="Groupe_11267" data-name="Groupe 11267" transform="translate(13.47 21.988)">
          <g id="Groupe_11266" data-name="Groupe 11266">
            <path id="Tracé_4868" stroke-linecap="round" stroke-linejoin="round" stroke-width="0.5" data-name="Tracé 4868" d="M316.83,449h-.025a.426.426,0,0,0,0,.852h.029a.426.426,0,0,0,0-.852Z" transform="translate(-316.378 -448.999)" fill="none"/>
          </g>
        </g>
        <g id="Groupe_11269" data-name="Groupe 11269" transform="translate(0 3)">
          <g id="Groupe_11268" data-name="Groupe 11268" transform="translate(0 0)">
            <path id="Tracé_4869" stroke-linecap="round" stroke-linejoin="round" stroke-width="1" data-name="Tracé 4869" d="M16.494,10.33a1.954,1.954,0,0,0-.189-.348h1.108a1.958,1.958,0,1,0,0-3.917H14A1.957,1.957,0,0,0,12.389,3H1.958a1.958,1.958,0,1,0,0,3.917H5.368a1.953,1.953,0,0,0,0,2.214H4.257A1.957,1.957,0,0,0,3.04,12.622a1.955,1.955,0,0,0,0,3.065,1.955,1.955,0,0,0,0,3.065,1.957,1.957,0,0,0,1.217,3.491H9.275A7.236,7.236,0,1,0,16.494,10.33Zm.919-3.413a1.107,1.107,0,1,1,0,2.214H6.982a1.107,1.107,0,1,1,0-2.214ZM1.958,6.065a1.107,1.107,0,0,1,0-2.214H12.389a1.107,1.107,0,0,1,0,2.214Zm2.3,3.917H14.688a1.106,1.106,0,0,1,.483.111c-.2-.017-.4-.026-.611-.026A7.215,7.215,0,0,0,9.439,12.2H4.257a1.107,1.107,0,1,1,0-2.214Zm0,3.065H8.711a7.217,7.217,0,0,0-1.094,2.214H4.257a1.107,1.107,0,1,1,0-2.214Zm0,3.065H7.422A7.243,7.243,0,0,0,7.4,18.327H4.257a1.107,1.107,0,1,1,0-2.214Zm0,5.279a1.107,1.107,0,1,1,0-2.214H7.569a7.209,7.209,0,0,0,1.021,2.214Zm10.3,2.3a6.386,6.386,0,1,1,6.386-6.386A6.393,6.393,0,0,1,14.561,23.691Z" transform="translate(0 -3)" fill="none"/>
          </g>
        </g>
      </g>
    </svg>

  <svg id="nav_administration" xmlns="http://www.w3.org/2000/svg" width="16.329" height="19.95" viewBox="0 0 16.329 19.95" stroke="currentColor">
    <g id="nav_administration" transform="translate(-2.352 0)">
      <g id="Groupe_11271" data-name="Groupe 11271" transform="translate(2.352 0)">
        <path id="Tracé_4871" data-name="Tracé 4871" d="M7.9,6.258a1.329,1.329,0,0,0,.3.654c.295,2.052,2.137,3.8,3.616,3.728,1.882-.092,3.216-2.121,3.516-3.728a1.64,1.64,0,0,0,.315-.722,1.682,1.682,0,0,0-.055-1.219c-.013-.015-.1-.093-.112-.106A3.151,3.151,0,0,0,15,1.514,5.388,5.388,0,0,0,12.713.254,3.534,3.534,0,0,0,7.989,2.378a3.7,3.7,0,0,0,.02,2.487.439.439,0,0,0-.111.106C7.676,5.265,7.821,5.89,7.9,6.258Z" transform="translate(-3.602 0)" fill="none"/>
        <path id="Tracé_4872" data-name="Tracé 4872" d="M18.675,20.57A10.433,10.433,0,0,0,17.3,15.088a2.735,2.735,0,0,0-1.186-.8,12.069,12.069,0,0,1-2.647-1.149l-.381.261.042,2.477-2.288,6.107a.342.342,0,0,1-.64,0L7.91,15.879s.042-2.469.042-2.477c.005.021-.382-.261-.382-.261A12.037,12.037,0,0,1,4.924,14.29a2.735,2.735,0,0,0-1.186.8A10.442,10.442,0,0,0,2.358,20.57c-.045.976.16,1.34.417,1.444,3.192,1.281,12.29,1.281,15.482,0C18.516,21.911,18.719,21.546,18.675,20.57Z" transform="translate(-2.352 -3.025)" fill="none"/>
        <path id="Tracé_4873" stroke-linecap="round" stroke-linejoin="round" stroke-width="2"  data-name="Tracé 4873" d="M12.736,14.794l-.1,0a3.059,3.059,0,0,1-1-.179l.907,1.388-.814.785.838,5.086a.09.09,0,0,0,.089.075.091.091,0,0,0,.089-.075l.838-5.086-.814-.785.894-1.367A3.832,3.832,0,0,1,12.736,14.794Z" transform="translate(-4.489 -3.365)" fill="none"/>
      </g>
    </g>
  </svg>

  <svg id="nav_operation" xmlns="http://www.w3.org/2000/svg" width="18.008" height="18.008" viewBox="0 0 18.008 18.008" stroke="currentColor">
    <g id="nav_operation" data-name="gear (1)" transform="translate(0)">
      <path id="Tracé_4859" data-name="Tracé 4859" d="M154.693,151a3.693,3.693,0,1,0,3.693,3.693A3.7,3.7,0,0,0,154.693,151Zm-.528,5.494-1.8-1.8.746-.746L154.165,155l2.11-2.11.746.746Z" transform="translate(-145.689 -145.689)" fill="none"/>
      <path stroke-linecap="round" stroke-linejoin="round" stroke-width="1" id="Tracé_4860" data-name="Tracé 4860" d="M15.6,4.646l.865-.865L14.227,1.543l-.865.865a7.907,7.907,0,0,0-2.775-1.149V0H7.421V1.258A7.906,7.906,0,0,0,4.646,2.408l-.865-.865L1.543,3.781l.865.865A7.907,7.907,0,0,0,1.258,7.421H0v3.165H1.258a7.906,7.906,0,0,0,1.149,2.775l-.865.865,2.238,2.238.865-.865A7.907,7.907,0,0,0,7.421,16.75v1.258h3.165V16.75A7.906,7.906,0,0,0,13.362,15.6l.865.865,2.238-2.238-.865-.865a7.907,7.907,0,0,0,1.149-2.775h1.258V7.421H16.75A7.907,7.907,0,0,0,15.6,4.646ZM9,13.752A4.748,4.748,0,1,1,13.752,9,4.753,4.753,0,0,1,9,13.752Z" transform="translate(0)" fill="none"/>
    </g>
  </svg>

  <svg id="nav_dashboard" xmlns="http://www.w3.org/2000/svg" width="18.234" height="18.234" viewBox="0 0 18.234 18.234" stroke="currentColor">
    <path id="Tracé_4853" data-name="Tracé 4853" d="M7.028,0H1.33A1.331,1.331,0,0,0,0,1.33V4.748a1.331,1.331,0,0,0,1.33,1.33h5.7a1.331,1.331,0,0,0,1.33-1.33V1.33A1.331,1.331,0,0,0,7.028,0Zm0,0" fill="none"/>
    <path id="Tracé_4854" data-name="Tracé 4854" d="M7.028,213.332H1.33A1.331,1.331,0,0,0,0,214.662v7.978a1.331,1.331,0,0,0,1.33,1.33h5.7a1.331,1.331,0,0,0,1.33-1.33v-7.978A1.331,1.331,0,0,0,7.028,213.332Zm0,0" transform="translate(0 -205.734)" fill="none"/>
    <path id="Tracé_4855" data-name="Tracé 4855" d="M284.36,341.332h-5.7a1.331,1.331,0,0,0-1.33,1.33v3.419a1.331,1.331,0,0,0,1.33,1.33h5.7a1.331,1.331,0,0,0,1.33-1.33v-3.419A1.331,1.331,0,0,0,284.36,341.332Zm0,0" transform="translate(-267.455 -329.176)" fill="none"/>
    <path id="Tracé_4856" data-name="Tracé 4856" d="M284.36,0h-5.7a1.331,1.331,0,0,0-1.33,1.33V9.307a1.331,1.331,0,0,0,1.33,1.33h5.7a1.331,1.331,0,0,0,1.33-1.33V1.33A1.331,1.331,0,0,0,284.36,0Zm0,0" transform="translate(-267.455)" fill="none"/>
  </svg>




  </defs>
</svg>
